<mxfile host="app.diagrams.net" modified="2024-04-08T17:19:33.978Z" agent="Mozilla/5.0 (Macintosh; Intel Mac OS X 10_15_7) AppleWebKit/605.1.15 (KHTML, like Gecko) Version/17.3 Safari/605.1.15" version="24.2.2" etag="623V4trsdmZoO-Ad6pu1" type="github">
  <diagram name="Page-1" id="wbdj2Az7B2RNlBv7qRKF">
    <mxGraphModel>
      <root>
        <mxCell id="0" />
        <mxCell id="1" parent="0" />
      </root>
    </mxGraphModel>
  </diagram>
</mxfile>
